<?xml version="1.0" encoding="utf-8"?>
<!-- Generator: Adobe Illustrator 27.5.0, SVG Export Plug-In . SVG Version: 6.00 Build 0)  -->
<svg version="1.1" id="Layer_1" xmlns="http://www.w3.org/2000/svg" xmlns:xlink="http://www.w3.org/1999/xlink" x="0px" y="0px"
	 viewBox="0 0 450 450" style="enable-background:new 0 0 450 450;" xml:space="preserve">
<g>
	<g>
		<path style="fill:#BC9B96;" d="M332.958,338.487l-2.604,1.531c-0.981-0.89-2.119-1.731-3.448-2.499l-116.779-67.422
			c-11.38-6.57-31.443-5.739-44.583,1.848l-35.132,20.284c-2.827,1.632-5.078,3.455-6.81,5.367l-2.44-1.533
			c0,0-5.048,7.44-0.438,15.539c0.025,0.044,0.052,0.065,0.078,0.108c1.224,2.332,3.332,4.482,6.41,6.259l116.778,67.422
			c11.38,6.57,31.443,5.739,44.584-1.848l35.132-20.284c4.251-2.454,7.257-5.329,9.021-8.315c0.028-0.046,0.057-0.067,0.085-0.115
			C338.097,345.832,332.958,338.487,332.958,338.487z"/>
		<path style="fill:#DEC9C5;" d="M243.99,380.53l-116.779-67.422c-11.38-6.57-9.939-18.153,3.201-25.741l35.132-20.283
			c13.141-7.587,33.204-8.418,44.584-1.848l116.779,67.422c11.38,6.57,9.94,18.153-3.201,25.74l-35.132,20.284
			C275.433,386.269,255.37,387.1,243.99,380.53z"/>
		<g>
			<g>
				<g>
					<path style="fill:#399EE2;" d="M155.253,301.367c-6.961,0-12.604-3.002-12.604-6.704v8.848c0,3.702,5.643,6.704,12.604,6.704
						c6.96,0,12.604-3.002,12.604-6.704v-8.848C167.856,298.365,162.213,301.367,155.253,301.367z"/>
					<path style="fill:#65B6F8;" d="M155.253,287.958c-6.961,0-12.604,3.001-12.604,6.704c0,3.702,5.643,6.704,12.604,6.704
						c6.96,0,12.604-3.002,12.604-6.704C167.856,290.96,162.213,287.958,155.253,287.958z"/>
				</g>
				<g>
					<path style="opacity:0.5;fill:#E6F3FF;" d="M155.253,302.814c-9.642,0-17.459-4.159-17.459-9.287v12.256
						c0,5.128,7.817,9.287,17.459,9.287c9.642,0,17.458-4.158,17.458-9.287v-12.256
						C172.711,298.655,164.894,302.814,155.253,302.814z"/>
					<path style="opacity:0.5;fill:#FFFFFF;" d="M155.253,284.241c-9.642,0-17.459,4.158-17.459,9.287
						c0,5.128,7.817,9.287,17.459,9.287c9.642,0,17.458-4.159,17.458-9.287C172.711,288.398,164.894,284.241,155.253,284.241z"/>
				</g>
			</g>
			<g>
				<g>
					<path style="fill:#399EE2;" d="M190.17,280.985c-6.961,0-12.604-3.002-12.604-6.704v8.848c0,3.702,5.643,6.704,12.604,6.704
						c6.961,0,12.604-3.002,12.604-6.704v-8.848C202.774,277.983,197.131,280.985,190.17,280.985z"/>
					<path style="fill:#65B6F8;" d="M190.17,267.576c-6.961,0-12.604,3.001-12.604,6.704c0,3.702,5.643,6.704,12.604,6.704
						c6.961,0,12.604-3.002,12.604-6.704C202.774,270.577,197.131,267.576,190.17,267.576z"/>
				</g>
				<g>
					<path style="opacity:0.5;fill:#E6F3FF;" d="M190.17,282.432c-9.642,0-17.459-4.159-17.459-9.287v12.256
						c0,5.128,7.817,9.287,17.459,9.287c9.642,0,17.458-4.158,17.458-9.287v-12.256C207.628,278.273,199.811,282.432,190.17,282.432
						z"/>
					<path style="opacity:0.5;fill:#FFFFFF;" d="M190.17,263.858c-9.642,0-17.459,4.158-17.459,9.287
						c0,5.128,7.817,9.287,17.459,9.287c9.642,0,17.458-4.159,17.458-9.287C207.628,268.016,199.811,263.858,190.17,263.858z"/>
				</g>
			</g>
			<g>
				<g>
					<path style="fill:#399EE2;" d="M192.142,322.117c-6.961,0-12.604-3.002-12.604-6.704v8.848c0,3.702,5.643,6.704,12.604,6.704
						c6.961,0,12.604-3.002,12.604-6.704v-8.848C204.746,319.116,199.103,322.117,192.142,322.117z"/>
					<path style="fill:#65B6F8;" d="M192.142,308.709c-6.961,0-12.604,3.002-12.604,6.704c0,3.702,5.643,6.704,12.604,6.704
						c6.961,0,12.604-3.002,12.604-6.704C204.746,311.71,199.103,308.709,192.142,308.709z"/>
				</g>
				<g>
					<path style="opacity:0.5;fill:#E6F3FF;" d="M192.142,323.565c-9.642,0-17.459-4.158-17.459-9.287v12.256
						c0,5.128,7.817,9.287,17.459,9.287c9.642,0,17.458-4.159,17.458-9.287v-12.256C209.6,319.406,201.784,323.565,192.142,323.565z
						"/>
					<path style="opacity:0.5;fill:#FFFFFF;" d="M192.142,304.991c-9.642,0-17.459,4.157-17.459,9.287
						c0,5.128,7.817,9.287,17.459,9.287c9.642,0,17.458-4.158,17.458-9.287C209.6,309.149,201.784,304.991,192.142,304.991z"/>
				</g>
			</g>
			<g>
				<g>
					<path style="fill:#399EE2;" d="M227.059,301.735c-6.961,0-12.604-3.002-12.604-6.704v8.848c0,3.702,5.643,6.704,12.604,6.704
						c6.961,0,12.604-3.002,12.604-6.704v-8.848C239.663,298.733,234.02,301.735,227.059,301.735z"/>
					<path style="fill:#65B6F8;" d="M227.059,288.327c-6.961,0-12.604,3.002-12.604,6.704c0,3.702,5.643,6.704,12.604,6.704
						c6.961,0,12.604-3.002,12.604-6.704C239.663,291.328,234.02,288.327,227.059,288.327z"/>
				</g>
				<g>
					<path style="opacity:0.5;fill:#E6F3FF;" d="M227.06,303.182c-9.643,0-17.459-4.158-17.459-9.287v12.255
						c0,5.128,7.817,9.287,17.459,9.287c9.641,0,17.458-4.159,17.458-9.287v-12.255C244.518,299.024,236.701,303.182,227.06,303.182
						z"/>
					<path style="opacity:0.5;fill:#FFFFFF;" d="M227.06,284.609c-9.643,0-17.459,4.157-17.459,9.287
						c0,5.128,7.817,9.287,17.459,9.287c9.641,0,17.458-4.158,17.458-9.287C244.518,288.767,236.701,284.609,227.06,284.609z"/>
				</g>
			</g>
		</g>
		<g>
			<g>
				<g>
					<path style="fill:#399EE2;" d="M229.031,342.868c-6.961,0-12.604-3.002-12.604-6.704v8.848c0,3.702,5.643,6.704,12.604,6.704
						c6.961,0,12.604-3.002,12.604-6.704v-8.848C241.635,339.866,235.992,342.868,229.031,342.868z"/>
					<path style="fill:#65B6F8;" d="M229.031,329.46c-6.961,0-12.604,3.002-12.604,6.704c0,3.702,5.643,6.704,12.604,6.704
						c6.961,0,12.604-3.002,12.604-6.704C241.635,332.461,235.992,329.46,229.031,329.46z"/>
				</g>
				<g>
					<path style="opacity:0.5;fill:#E6F3FF;" d="M229.032,344.315c-9.643,0-17.459-4.158-17.459-9.287v12.256
						c0,5.128,7.817,9.287,17.459,9.287c9.641,0,17.458-4.159,17.458-9.287v-12.256C246.49,340.157,238.673,344.315,229.032,344.315
						z"/>
					<path style="opacity:0.5;fill:#FFFFFF;" d="M229.032,325.742c-9.643,0-17.459,4.158-17.459,9.287
						c0,5.128,7.817,9.287,17.459,9.287c9.641,0,17.458-4.158,17.458-9.287C246.49,329.9,238.673,325.742,229.032,325.742z"/>
				</g>
			</g>
			<g>
				<g>
					<path style="fill:#399EE2;" d="M263.949,322.486c-6.961,0-12.604-3.002-12.604-6.704v8.848c0,3.702,5.643,6.704,12.604,6.704
						c6.961,0,12.604-3.002,12.604-6.704v-8.848C276.553,319.484,270.909,322.486,263.949,322.486z"/>
					<path style="fill:#65B6F8;" d="M263.949,309.077c-6.961,0-12.604,3.002-12.604,6.704c0,3.702,5.643,6.704,12.604,6.704
						c6.961,0,12.604-3.002,12.604-6.704C276.553,312.079,270.909,309.077,263.949,309.077z"/>
				</g>
				<g>
					<path style="opacity:0.5;fill:#E6F3FF;" d="M263.949,323.933c-9.643,0-17.459-4.158-17.459-9.287v12.256
						c0,5.128,7.817,9.287,17.459,9.287c9.641,0,17.458-4.159,17.458-9.287v-12.256C281.407,319.775,273.59,323.933,263.949,323.933
						z"/>
					<path style="opacity:0.5;fill:#FFFFFF;" d="M263.949,305.36c-9.643,0-17.459,4.158-17.459,9.287
						c0,5.128,7.817,9.287,17.459,9.287c9.641,0,17.458-4.158,17.458-9.287C281.407,309.517,273.59,305.36,263.949,305.36z"/>
				</g>
			</g>
			<g>
				<g>
					<path style="fill:#399EE2;" d="M265.921,363.619c-6.961,0-12.604-3.002-12.604-6.704v8.848c0,3.702,5.643,6.704,12.604,6.704
						c6.961,0,12.604-3.002,12.604-6.704v-8.848C278.525,360.617,272.882,363.619,265.921,363.619z"/>
					<path style="fill:#65B6F8;" d="M265.921,350.21c-6.961,0-12.604,3.001-12.604,6.704c0,3.702,5.643,6.704,12.604,6.704
						c6.961,0,12.604-3.002,12.604-6.704C278.525,353.212,272.882,350.21,265.921,350.21z"/>
				</g>
				<g>
					<path style="opacity:0.5;fill:#E6F3FF;" d="M265.921,365.066c-9.643,0-17.459-4.159-17.459-9.287v12.256
						c0,5.128,7.817,9.287,17.459,9.287c9.641,0,17.458-4.158,17.458-9.287v-12.256
						C283.379,360.908,275.563,365.066,265.921,365.066z"/>
					<path style="opacity:0.5;fill:#FFFFFF;" d="M265.921,346.493c-9.643,0-17.459,4.158-17.459,9.287
						c0,5.128,7.817,9.287,17.459,9.287c9.641,0,17.458-4.159,17.458-9.287C283.379,350.65,275.563,346.493,265.921,346.493z"/>
				</g>
			</g>
			<g>
				<g>
					<path style="fill:#399EE2;" d="M300.838,343.237c-6.961,0-12.604-3.002-12.604-6.704v8.848c0,3.702,5.643,6.704,12.604,6.704
						c6.961,0,12.604-3.002,12.604-6.704v-8.848C313.442,340.235,307.799,343.237,300.838,343.237z"/>
					<path style="fill:#65B6F8;" d="M300.838,329.828c-6.961,0-12.604,3.001-12.604,6.704c0,3.702,5.643,6.704,12.604,6.704
						c6.961,0,12.604-3.002,12.604-6.704C313.442,332.829,307.799,329.828,300.838,329.828z"/>
				</g>
				<g>
					<path style="opacity:0.5;fill:#E6F3FF;" d="M300.839,344.684c-9.643,0-17.459-4.159-17.459-9.287v12.256
						c0,5.128,7.817,9.286,17.459,9.286c9.641,0,17.458-4.158,17.458-9.286v-12.256C318.297,340.525,310.48,344.684,300.839,344.684
						z"/>
					<path style="opacity:0.5;fill:#FFFFFF;" d="M300.839,326.111c-9.643,0-17.459,4.158-17.459,9.287
						c0,5.128,7.817,9.287,17.459,9.287c9.641,0,17.458-4.159,17.458-9.287C318.297,330.268,310.48,326.111,300.839,326.111z"/>
				</g>
			</g>
		</g>
	</g>
	<g>
		<path style="fill:#EA3636;" d="M348.398,278.453c-16.665,0-30.175,7.186-30.175,16.051c0,8.865,13.51,16.051,30.175,16.051
			c16.665,0,30.175-7.186,30.175-16.051C378.573,285.639,365.064,278.453,348.398,278.453z"/>
		<path style="fill:#F74D41;" d="M311.15,203.632v80.903c0,10.943,16.677,19.813,37.248,19.813c20.571,0,37.248-8.87,37.248-19.813
			v-80.903H311.15z"/>
		<path style="fill:#EFE2E1;" d="M348.398,238.592c-20.571,0-37.248-8.87-37.248-19.812v47.408
			c0,10.942,16.676,19.812,37.248,19.812c20.572,0,37.248-8.87,37.248-19.812V218.78
			C385.647,229.722,368.97,238.592,348.398,238.592z"/>
		<path style="fill:#FF5E4C;" d="M385.647,202.809c0-10.856-13.583-21.164-13.583-21.164l-4.906,4.961
			c-5.528-1.727-11.885-2.787-18.759-2.787c-6.874,0-13.231,1.061-18.758,2.787l-4.906-4.961c0,0-13.583,10.308-13.583,21.164
			c0,0.102,0,0.621,0,0.822c0,10.943,16.676,19.814,37.248,19.814c20.572,0,37.248-8.871,37.248-19.814
			C385.647,203.43,385.647,202.912,385.647,202.809z"/>
		<path style="fill:#F74D41;" d="M348.398,174.424c-15.163,0-27.454,6.539-27.454,14.604c0,8.065,12.292,14.604,27.454,14.604
			c15.163,0,27.455-6.538,27.455-14.604C375.853,180.963,363.561,174.424,348.398,174.424z"/>
		<ellipse style="fill:#EA3636;" cx="348.398" cy="184.494" rx="18.931" ry="10.07"/>
		<g>
			<path style="fill:#DEC9C5;" d="M325.206,153.019v19.138c0,2.258,1.451,4.258,3.442,6.079v-14.691
				c0-0.911,0.559-1.333,1.242-0.938c0.682,0.394,1.241,1.462,1.241,2.372v15.217c1.937,1.177,4.241,2.125,6.887,2.844v-14.984
				c0-0.788,0.645-1.433,1.433-1.433c0.789,0,1.434,0.645,1.434,1.433v15.631c2.144,0.396,4.381,0.682,6.759,0.726v-15.469
				c0-0.788,0.645-1.433,1.435-1.433c0.789,0,1.434,0.645,1.434,1.433v15.323c2.414-0.122,4.822-0.276,6.964-0.761v-16.063
				c0-0.79,0.646-1.435,1.435-1.435c0.789,0,1.434,0.645,1.434,1.435v15.036c2.19-0.721,4.117-1.559,5.742-2.614v-14.885
				c0-0.91,0.559-1.977,1.242-2.372c0.682-0.394,1.241,0.028,1.241,0.938v14.359c1.761-1.74,3.02-3.633,3.02-5.747v-19.138H325.206z
				"/>
			<path style="fill:#BC9B96;" d="M349.08,167.51c-0.789,0-1.435,0.645-1.435,1.433v15.469c0.265,0.004,0.486,0.081,0.753,0.081
				c0.75,0,1.384-0.19,2.116-0.227v-15.323C350.514,168.155,349.869,167.51,349.08,167.51z"/>
			<path style="fill:#BC9B96;" d="M339.452,166.623c-0.788,0-1.433,0.645-1.433,1.433v14.984c0.937,0.254,1.862,0.461,2.867,0.647
				v-15.631C340.886,167.268,340.241,166.623,339.452,166.623z"/>
			<path style="fill:#BC9B96;" d="M358.912,166.007c-0.788,0-1.435,0.645-1.435,1.435v16.063c1.078-0.244,1.882-0.702,2.868-1.028
				v-15.036C360.345,166.652,359.701,166.007,358.912,166.007z"/>
			<path style="fill:#BC9B96;" d="M367.329,162.607c-0.683,0.394-1.242,1.462-1.242,2.372v14.885
				c0.941-0.611,1.773-1.26,2.483-1.959v-14.359C368.571,162.634,368.012,162.212,367.329,162.607z"/>
			<path style="fill:#BC9B96;" d="M329.891,162.607c-0.683-0.394-1.242,0.028-1.242,0.938v14.691c0.75,0.685,1.506,1.366,2.483,1.96
				v-15.217C331.132,164.069,330.573,163.001,329.891,162.607z"/>
		</g>
		<path style="fill:#EAD9D8;" d="M348.398,140.682c-12.809,0-23.193,5.523-23.193,12.337c0,6.813,10.384,12.337,23.193,12.337
			c12.809,0,23.193-5.523,23.193-12.337C371.591,146.206,361.208,140.682,348.398,140.682z"/>
		<path style="fill:#EFE2E1;" d="M348.609,140.682c-9.652,0-17.478,4.162-17.478,9.297c0,5.135,7.825,9.297,17.478,9.297
			c9.653,0,17.478-4.162,17.478-9.297C366.087,144.845,358.262,140.682,348.609,140.682z"/>
		<path style="fill:#FFFFFF;" d="M321.638,188.08c-2.753,2.948-5.222,7.404-6.187,9.696c-0.938,2.229-2.747,6.786-0.955,9.04
			c1.47,1.85,3.537,0.503,4.3-1.199c0.922-2.053,1.249-4.527,1.825-6.709c0.743-2.814,2.156-7.038,2.778-9.881
			C323.708,187.619,323.196,186.411,321.638,188.08z"/>
		<path style="fill:#F44A3D;" d="M368.273,260.803c0.294,11.634-8.799,19.451-19.654,19.451c-10.854,0-19.654-7.818-19.654-19.451
			c0-9.86,8.799-16.253,19.654-16.253C359.474,244.551,368.024,250.947,368.273,260.803z"/>
		<path style="fill:#EFE2E1;" d="M360.911,256.962c-2.602,0.727-5.382,1.191-8.215,1.432v-9.111h-8.146v9.139
			c-2.825-0.22-5.607-0.659-8.228-1.359l-1.401-0.374v7.774l0.827,0.222c2.813,0.752,5.765,1.228,8.803,1.453v9.385h8.146v-9.416
			c3.053-0.248,6.01-0.747,8.816-1.53l0.814-0.227v-7.781L360.911,256.962z"/>
	</g>
	<g>
		<g>
			<path style="fill:#399EE2;" d="M297.097,122.247V234.33c0,14.117-21.514,25.56-48.053,25.56
				c-26.539,0-48.053-11.444-48.053-25.56l0-112.562L297.097,122.247z"/>
		</g>
		<g>
			<path style="fill:#EFE2E1;" d="M220.129,161.032c8.065,3.257,18.007,5.264,28.914,5.264c26.539,0,48.054-11.444,48.054-25.56
				v75.105c0,14.117-21.514,25.56-48.054,25.56c-10.908,0-20.849-2.006-28.914-5.264V161.032z"/>
		</g>
		<path style="fill:#422C2A;" d="M230.584,179.131c5.689,1.301,11.863,2.105,18.459,2.105c26.54,0,48.054-11.444,48.054-25.56v8.584
			c0,14.116-21.514,25.56-48.054,25.56c-6.596,0-12.77-0.805-18.459-2.105V179.131z"/>
		<path style="fill:#65B6F8;" d="M203.097,114.68l-0.052-0.022c0,0,0.441-0.863,1.34-2.183c0.254-0.347,0.484-0.693,0.765-1.032
			c3.46-4.687,11.695-13.365,27.927-17.843c5.622-1.55,8.834-0.102,10.536,2.9c1.806-0.11,3.571-0.292,5.431-0.292
			c1.901,0,3.706,0.183,5.548,0.298c1.702-3.008,4.915-4.458,10.543-2.906c16.965,4.679,25.3,14.033,28.464,18.53
			c1.094,1.555,3.498,7.177,3.498,9.638c0,14.118-21.514,25.562-48.053,25.562c-26.54,0-48.054-11.444-48.054-25.562
			C200.991,119.292,201.861,116.945,203.097,114.68z"/>
		<path style="fill:#399EE2;" d="M247.999,91.563c14.284,0,25.863,6.16,25.863,13.758c0,7.598-11.579,13.757-25.863,13.757
			c-14.284,0-25.863-6.16-25.863-13.757C222.135,97.723,233.715,91.563,247.999,91.563z"/>
		<g>
			<path style="fill:#563937;" d="M275.023,74.25v21.832c0,2.576-1.655,4.858-3.927,6.935c-0.856,0.782-1.718,1.558-2.833,2.236
				c-2.21,1.343-4.838,2.425-7.857,3.244c-1.069,0.29-2.124,0.527-3.271,0.739c-2.447,0.452-4.998,0.778-7.712,0.828
				c-0.302,0.005-0.554,0.092-0.858,0.092c-0.856,0-1.579-0.217-2.413-0.26c-2.755-0.139-5.502-0.315-7.945-0.868
				c-1.229-0.279-2.147-0.801-3.272-1.172c-2.498-0.822-4.696-1.779-6.55-2.983c-1.074-0.697-2.024-1.438-2.833-2.236
				c-2.009-1.984-3.445-4.145-3.445-6.556V74.25H275.023z"/>
			<g>
				<path style="fill:#422C2A;" d="M247.787,90.781c0.901,0,1.636,0.736,1.636,1.635v17.647c-0.302,0.005-0.554,0.092-0.858,0.092
					c-0.856,0-1.579-0.217-2.413-0.259v-17.48C246.152,91.517,246.888,90.781,247.787,90.781z"/>
				<path style="fill:#422C2A;" d="M258.77,89.769c0.9,0,1.636,0.736,1.636,1.636v17.093c-1.069,0.29-2.124,0.527-3.271,0.739
					V91.405C257.135,90.505,257.871,89.769,258.77,89.769z"/>
				<path style="fill:#422C2A;" d="M236.571,89.067c0.9,0,1.636,0.736,1.636,1.636v18.326c-1.229-0.279-2.147-0.801-3.272-1.172
					V90.703C234.935,89.803,235.671,89.067,236.571,89.067z"/>
				<path style="fill:#422C2A;" d="M226.968,85.188c0.78,0.45,1.417,1.668,1.417,2.706v16.98c-1.074-0.697-2.023-1.438-2.833-2.236
					V86.258C225.552,85.219,226.189,84.738,226.968,85.188z"/>
				<path style="fill:#422C2A;" d="M269.679,85.188c0.779-0.45,1.417,0.032,1.417,1.07v16.76c-0.856,0.782-1.718,1.558-2.833,2.236
					v-17.36C268.263,86.856,268.901,85.637,269.679,85.188z"/>
			</g>
			<path style="fill:#664444;" d="M248.565,60.176c14.613,0,26.458,6.301,26.458,14.074c0,7.773-11.846,14.074-26.458,14.074
				c-14.613,0-26.459-6.301-26.459-14.074C222.106,66.477,233.952,60.176,248.565,60.176z"/>
		</g>
		<g>
			<path style="fill:#BC9B96;" d="M273.135,199.648c6.369-3.005,16.492-3.084,16.492-3.084l2.744,5.351
				c2.418,5.124-2.275,12.416-10.48,16.288c-8.039,3.793-16.431,2.87-19.043-1.986l-2.936-5.632
				C259.911,210.585,266.766,202.653,273.135,199.648z"/>
			<path style="fill:#DEC9C5;" d="M279.147,212.852c8.205-3.872,12.897-11.164,10.48-16.288c-2.418-5.124-11.03-6.139-19.235-2.267
				c-8.206,3.872-12.898,11.164-10.48,16.288C262.329,215.709,270.941,216.724,279.147,212.852z"/>
		</g>
		<g>
			<path style="fill:#BC9B96;" d="M234.022,206.52c4.584-0.588,10.764,0.505,17.014,3.412c6.731,3.131,11.872,7.558,14.166,11.71
				l3.278,1.59l-2.454,5.15c-2.424,5.211-13.066,5.401-23.768,0.422s-17.414-13.239-14.99-18.451l2.698-5.801L234.022,206.52z"/>
			<path style="fill:#D1B8B4;" d="M244.956,223.004c10.702,4.979,21.344,4.79,23.768-0.422c2.424-5.211-4.287-13.472-14.99-18.45
				c-10.702-4.978-21.344-4.789-23.768,0.422C227.542,209.765,234.253,218.025,244.956,223.004z"/>
		</g>
	</g>
	<g>
		<path style="fill:#C4A8A5;" d="M122.148,343.684c-4.137-1.957-9.571-3.156-15.543-3.156c-5.972,0-11.406,1.199-15.543,3.156
			l-7.878-5.071v14.373c0,6.881,10.486,12.458,23.421,12.458c12.936,0,23.422-5.578,23.422-12.458v-14.373L122.148,343.684z"/>
		<g>
			<path style="fill:#EFE2E1;" d="M106.605,326.155c-12.935,0-23.421,5.578-23.421,12.459c0,6.88,10.486,12.458,23.421,12.458
				c12.936,0,23.422-5.578,23.422-12.458C130.027,331.733,119.54,326.155,106.605,326.155z"/>
		</g>
		<g>
			<path style="fill:#D1B8B4;" d="M97.687,327.287l-8.511,3.013l29.603,18.953l3.708-1.491c0,0,3.191-2.017,2.861-2.228
				C125.019,345.324,97.687,327.287,97.687,327.287z"/>
		</g>
	</g>
	<g>
		<path style="fill:#C4A8A5;" d="M148.944,366.251c4.137-1.957,9.57-3.157,15.543-3.157c5.973,0,11.406,1.199,15.543,3.157
			l7.878-5.071v14.373c0,6.88-10.486,12.458-23.421,12.458c-12.936,0-23.422-5.578-23.422-12.458V361.18L148.944,366.251z"/>
		<g>
			<path style="fill:#EFE2E1;" d="M164.488,348.721c12.935,0,23.421,5.578,23.421,12.458s-10.486,12.458-23.421,12.458
				c-12.936,0-23.422-5.578-23.422-12.458S151.552,348.721,164.488,348.721z"/>
		</g>
		<g>
			<path style="fill:#D1B8B4;" d="M173.405,349.854l8.511,3.013l-29.604,18.953l-3.708-1.491c0,0-3.19-2.017-2.861-2.228
				C146.073,367.891,173.405,349.854,173.405,349.854z"/>
		</g>
	</g>
	<g>
		<path style="fill:#7FA521;" d="M101.596,158.652v80.417c0,10.128,15.436,18.339,34.477,18.339
			c19.041,0,34.477-8.211,34.477-18.339l0-80.76L101.596,158.652z"/>
		<g>
			<g>
				<path style="fill:#EFE2E1;" d="M101.596,171.335v51.593c0,10.128,15.436,18.339,34.477,18.339
					c8.415,0,16.119-1.608,22.105-4.271v-51.593c-5.986,2.664-13.69,4.272-22.105,4.272
					C117.032,189.674,101.596,181.464,101.596,171.335z"/>
			</g>
		</g>
		<path style="fill:#422C2A;" d="M149.333,196.078c-4.085,0.909-8.554,1.427-13.26,1.427c-19.041,0-34.477-8.211-34.477-18.339v8.38
			c0,10.129,15.436,18.339,34.477,18.339c4.706,0,9.175-0.518,13.26-1.427V196.078z"/>
		<path style="fill:#DEC9C5;" d="M167.508,142.699c-7.226-4.876-18.405-8.017-30.983-8.017c-7.58,0-14.635,1.157-20.647,3.127
			l-3.267-0.309l-15.546,9.231v8.942c0,11.592,17.667,20.99,39.46,20.99c21.794,0,39.461-9.398,39.461-20.99v-8.942L167.508,142.699
			z"/>
		<path style="fill:#EFE2E1;" d="M136.525,125.74c-21.793,0-39.46,9.397-39.46,20.99c0,11.592,17.667,20.99,39.46,20.99
			c21.794,0,39.461-9.398,39.461-20.99C175.986,135.138,158.319,125.74,136.525,125.74z"/>
		<path style="fill:#7FA521;" d="M162.675,132.967c-6.064-4.092-15.445-6.728-26.002-6.728c-6.361,0-12.282,0.971-17.327,2.624
			l-2.742-0.26l-13.046,5.038v10.213c0,9.728,14.826,17.615,33.115,17.615c18.29,0,33.117-7.887,33.117-17.615v-10.213
			L162.675,132.967z"/>
		<path style="fill:#97C941;" d="M136.674,116.025c-18.289,0-33.116,7.886-33.116,17.616c0,9.728,14.826,17.615,33.116,17.615
			c18.29,0,33.117-7.887,33.117-17.615C169.79,123.911,154.964,116.025,136.674,116.025z"/>
	</g>
	<g>
		<path style="fill:#399EE2;" d="M64.354,269.049l3.744-0.754c2.422-2.754,5.946-5.384,10.47-7.568
			c9.41-4.542,20.458-5.922,28.492-4.079c1.782,0.409,3.392,0.995,4.828,1.722l6.003,0.188c0,0,0.025,7.916-0.012,8.606
			c-0.28,5.261-5.386,11.184-14.182,15.43c-13.057,6.303-29.267,6.517-36.207,0.479c-2.325-2.023-3.286-4.496-3.082-7.122
			L64.354,269.049z"/>
		<path style="fill:#65B6F8;" d="M78.568,252.241c-13.057,6.303-18.017,16.308-11.077,22.346c6.939,6.039,23.15,5.825,36.207-0.478
			c13.057-6.303,18.017-16.308,11.077-22.346C107.835,245.724,91.624,245.938,78.568,252.241z"/>
		<path style="fill:#399EE2;" d="M85.12,249.781c13.804,6.076,19.522,16.336,19.522,16.336l-4.806,2.932
			c0,0-10.752-13.251-21.269-16.808L85.12,249.781z"/>
	</g>
</g>
</svg>
